<svg width="64" height="21" viewBox="0 0 64 21" fill="none" xmlns="http://www.w3.org/2000/svg">
<path d="M7.49324 7.116L8.83724 10H10.1952L5.63124 0.199999H4.93124L0.787245 10H1.43124L2.66324 7.116H7.49324ZM7.19925 6.486H2.92924L4.94525 1.768H5.00125L7.19925 6.486ZM17.5932 10V5.464C17.5932 5.296 17.5792 5.06733 17.5512 4.778C17.5232 4.47933 17.4298 4.19 17.2712 3.91C17.1218 3.62067 16.8792 3.37333 16.5432 3.168C16.2072 2.95333 15.7312 2.846 15.1152 2.846C14.8445 2.83667 14.5412 2.89267 14.2052 3.014C13.8692 3.126 13.5378 3.34533 13.2112 3.672L12.9872 3.896H12.9312V3H11.7412V10H12.9312V5.674C12.9312 5.31 12.9825 4.99733 13.0852 4.736C13.1878 4.47467 13.3278 4.25533 13.5052 4.078C13.6825 3.90067 13.8832 3.77 14.1072 3.686C14.3405 3.602 14.5785 3.56 14.8212 3.56C15.2132 3.56 15.5165 3.63933 15.7312 3.798C15.9458 3.94733 16.0998 4.12467 16.1932 4.33C16.2958 4.53533 16.3565 4.74067 16.3752 4.946C16.3938 5.15133 16.4032 5.30067 16.4032 5.394V10H17.5932Z" fill="#FF0000"/>
<path d="M20.5759 10V0.199999H23.7959C24.5706 0.199999 25.2799 0.325999 25.9239 0.577999C26.5679 0.820666 27.1186 1.16133 27.5759 1.6C28.0426 2.02933 28.4019 2.54267 28.6539 3.14C28.9153 3.73733 29.0459 4.38133 29.0459 5.072C29.0459 5.79067 28.9106 6.45333 28.6399 7.06C28.3786 7.65733 28.0146 8.17533 27.5479 8.614C27.0906 9.05267 26.5539 9.39333 25.9379 9.636C25.3219 9.87867 24.6639 10 23.9639 10H20.5759ZM21.8499 9.384H23.3899C24.1553 9.384 24.8039 9.258 25.3359 9.006C25.8773 8.74467 26.3206 8.40867 26.6659 7.998C27.0113 7.58733 27.2633 7.13 27.4219 6.626C27.5806 6.11267 27.6599 5.604 27.6599 5.1C27.6599 4.54 27.5666 4.00333 27.3799 3.49C27.1933 2.96733 26.9179 2.51 26.5539 2.118C26.1993 1.71667 25.7559 1.39933 25.2239 1.166C24.6919 0.932666 24.0806 0.816 23.3899 0.816H21.8499V9.384ZM36.797 6.808V6.514C36.797 5.88867 36.7083 5.34733 36.531 4.89C36.3537 4.43267 36.111 4.05467 35.803 3.756C35.5043 3.45733 35.1543 3.23333 34.753 3.084C34.3517 2.93467 33.927 2.86 33.479 2.86C33.003 2.86 32.5643 2.944 32.163 3.112C31.7617 3.27067 31.4117 3.50867 31.113 3.826C30.8143 4.134 30.581 4.512 30.413 4.96C30.245 5.39867 30.161 5.898 30.161 6.458C30.161 6.92467 30.231 7.382 30.371 7.83C30.5203 8.26867 30.7397 8.66533 31.029 9.02C31.3277 9.36533 31.701 9.64533 32.149 9.86C32.6063 10.0653 33.143 10.168 33.759 10.168C34.3563 10.168 34.907 10.0653 35.411 9.86C35.915 9.64533 36.3537 9.342 36.727 8.95L36.279 8.502C36.083 8.67 35.8963 8.824 35.719 8.964C35.551 9.104 35.3783 9.22067 35.201 9.314C35.0237 9.40733 34.837 9.482 34.641 9.538C34.4543 9.58467 34.2443 9.608 34.011 9.608C33.7497 9.608 33.4697 9.57067 33.171 9.496C32.8817 9.412 32.611 9.26733 32.359 9.062C32.107 8.85667 31.897 8.572 31.729 8.208C31.561 7.844 31.477 7.37733 31.477 6.808H36.797ZM31.477 6.248C31.477 5.87467 31.5143 5.51533 31.589 5.17C31.673 4.81533 31.7943 4.50267 31.953 4.232C32.121 3.96133 32.331 3.74667 32.583 3.588C32.835 3.42 33.1337 3.336 33.479 3.336C34.1417 3.336 34.655 3.59733 35.019 4.12C35.3923 4.63333 35.579 5.34267 35.579 6.248H31.477ZM43.0861 4.596C43.0861 4.344 43.0207 4.11067 42.8901 3.896C42.7594 3.68133 42.5774 3.49933 42.3441 3.35C42.1201 3.19133 41.8541 3.07 41.5461 2.986C41.2474 2.89267 40.9254 2.846 40.5801 2.846C40.2534 2.846 39.9454 2.888 39.6561 2.972C39.3761 3.056 39.1287 3.182 38.9141 3.35C38.7087 3.518 38.5454 3.728 38.4241 3.98C38.3027 4.22267 38.2421 4.50733 38.2421 4.834C38.2421 5.282 38.3447 5.63667 38.5501 5.898C38.7554 6.15933 39.0121 6.36933 39.3201 6.528C39.6281 6.68667 39.9594 6.81733 40.3141 6.92C40.6781 7.01333 41.0141 7.12067 41.3221 7.242C41.6301 7.354 41.8867 7.49867 42.0921 7.676C42.2974 7.85333 42.4001 8.096 42.4001 8.404C42.4001 8.53467 42.3767 8.67 42.3301 8.81C42.2927 8.95 42.2181 9.08067 42.1061 9.202C41.9941 9.314 41.8401 9.412 41.6441 9.496C41.4481 9.57067 41.2007 9.608 40.9021 9.608C40.5287 9.608 40.2114 9.552 39.9501 9.44C39.6981 9.31867 39.4881 9.17867 39.3201 9.02C39.1614 8.852 39.0447 8.684 38.9701 8.516C38.9047 8.348 38.8721 8.208 38.8721 8.096H37.9621C37.9621 8.35733 38.0227 8.614 38.1441 8.866C38.2654 9.10867 38.4474 9.328 38.6901 9.524C38.9421 9.72 39.2454 9.87867 39.6001 10C39.9641 10.112 40.3841 10.168 40.8601 10.168C41.7187 10.168 42.3627 9.98133 42.7921 9.608C43.2307 9.22533 43.4501 8.726 43.4501 8.11C43.4501 7.662 43.3427 7.30267 43.1281 7.032C42.9227 6.76133 42.6614 6.54667 42.3441 6.388C42.0267 6.22 41.6814 6.08467 41.3081 5.982C40.9441 5.87933 40.6034 5.772 40.2861 5.66C39.9687 5.548 39.7027 5.41267 39.4881 5.254C39.2827 5.09533 39.1801 4.87133 39.1801 4.582C39.1801 4.46067 39.2034 4.33467 39.2501 4.204C39.2967 4.064 39.3761 3.938 39.4881 3.826C39.6001 3.70467 39.7494 3.60667 39.9361 3.532C40.1227 3.448 40.3561 3.406 40.6361 3.406C40.9161 3.406 41.1587 3.448 41.3641 3.532C41.5694 3.60667 41.7421 3.70467 41.8821 3.826C42.0221 3.938 42.1247 4.064 42.1901 4.204C42.2554 4.344 42.2881 4.47467 42.2881 4.596H43.0861ZM45.7946 3V10H46.9846V3H45.7946ZM45.6266 0.787999C45.6266 0.993333 45.7013 1.17067 45.8506 1.32C46 1.46933 46.1773 1.544 46.3826 1.544C46.588 1.544 46.7653 1.46933 46.9146 1.32C47.064 1.17067 47.1386 0.993333 47.1386 0.787999C47.1386 0.582666 47.064 0.405333 46.9146 0.255999C46.7653 0.106666 46.588 0.0319998 46.3826 0.0319998C46.1773 0.0319998 46 0.106666 45.8506 0.255999C45.7013 0.405333 45.6266 0.582666 45.6266 0.787999ZM54.6513 10.588C54.6513 11.0173 54.5999 11.3813 54.4973 11.68C54.3946 11.9787 54.2499 12.2213 54.0633 12.408C53.8859 12.5947 53.6713 12.73 53.4193 12.814C53.1766 12.898 52.9153 12.94 52.6353 12.94C52.1406 12.94 51.7393 12.814 51.4313 12.562C51.1326 12.31 50.8573 11.974 50.6053 11.554L49.8353 12.254C49.9006 12.338 50.0033 12.4453 50.1433 12.576C50.2833 12.716 50.4606 12.8513 50.6753 12.982C50.8899 13.122 51.1466 13.2387 51.4453 13.332C51.7439 13.4347 52.0846 13.486 52.4673 13.486C53.1766 13.486 53.7506 13.3833 54.1893 13.178C54.6279 12.982 54.9686 12.716 55.2113 12.38C55.4539 12.044 55.6173 11.6567 55.7013 11.218C55.7946 10.7887 55.8413 10.3407 55.8413 9.874V3H54.6513V4.092H54.5953C54.4833 3.7 54.2406 3.39667 53.8673 3.182C53.5033 2.958 53.0226 2.846 52.4253 2.846C51.9493 2.846 51.5153 2.93467 51.1233 3.112C50.7313 3.28 50.3953 3.52267 50.1153 3.84C49.8353 4.15733 49.6159 4.54 49.4573 4.988C49.3079 5.436 49.2333 5.93533 49.2333 6.486C49.2333 7.046 49.3079 7.55467 49.4573 8.012C49.6159 8.46 49.8353 8.84733 50.1153 9.174C50.3953 9.49133 50.7266 9.73867 51.1093 9.916C51.5013 10.084 51.9353 10.168 52.4113 10.168C52.9339 10.168 53.3866 10.0653 53.7693 9.86C54.1613 9.65467 54.4366 9.328 54.5953 8.88H54.6513V10.588ZM54.6513 7.018C54.6513 7.41 54.5953 7.75533 54.4833 8.054C54.3806 8.35267 54.2406 8.60467 54.0633 8.81C53.8859 9.01533 53.6806 9.174 53.4473 9.286C53.2139 9.38867 52.9713 9.44 52.7193 9.44C52.4953 9.44 52.2526 9.40267 51.9913 9.328C51.7393 9.244 51.5013 9.09467 51.2773 8.88C51.0626 8.66533 50.8806 8.362 50.7313 7.97C50.5913 7.578 50.5213 7.074 50.5213 6.458C50.5213 5.80467 50.6099 5.28667 50.7873 4.904C50.9646 4.512 51.1699 4.21333 51.4033 4.008C51.6459 3.80267 51.8886 3.672 52.1313 3.616C52.3833 3.55067 52.5793 3.518 52.7193 3.518C53.0273 3.518 53.3026 3.588 53.5453 3.728C53.7879 3.85867 53.9886 4.04067 54.1473 4.274C54.3153 4.498 54.4413 4.75933 54.5253 5.058C54.6093 5.35667 54.6513 5.66467 54.6513 5.982V7.018ZM63.9271 10V5.464C63.9271 5.296 63.9131 5.06733 63.8851 4.778C63.8571 4.47933 63.7638 4.19 63.6051 3.91C63.4558 3.62067 63.2131 3.37333 62.8771 3.168C62.5411 2.95333 62.0651 2.846 61.4491 2.846C61.1785 2.83667 60.8751 2.89267 60.5391 3.014C60.2031 3.126 59.8718 3.34533 59.5451 3.672L59.3211 3.896H59.2651V3H58.0751V10H59.2651V5.674C59.2651 5.31 59.3165 4.99733 59.4191 4.736C59.5218 4.47467 59.6618 4.25533 59.8391 4.078C60.0165 3.90067 60.2171 3.77 60.4411 3.686C60.6745 3.602 60.9125 3.56 61.1551 3.56C61.5471 3.56 61.8505 3.63933 62.0651 3.798C62.2798 3.94733 62.4338 4.12467 62.5271 4.33C62.6298 4.53533 62.6905 4.74067 62.7091 4.946C62.7278 5.15133 62.7371 5.30067 62.7371 5.394V10H63.9271Z" fill="white"/>
<path d="M4.3332 13L6.8132 20H7.4132L9.3232 14.53H9.3732L11.2232 20H11.8132L14.2932 13H13.8332L11.7632 18.84H11.7232L9.7732 13H9.3432L7.3532 18.81H7.3132L5.2532 13H4.3332ZM19.8298 17.72V17.51C19.8298 17.0633 19.7665 16.6767 19.6398 16.35C19.5132 16.0233 19.3398 15.7533 19.1198 15.54C18.9065 15.3267 18.6565 15.1667 18.3698 15.06C18.0832 14.9533 17.7798 14.9 17.4598 14.9C17.1198 14.9 16.8065 14.96 16.5198 15.08C16.2332 15.1933 15.9832 15.3633 15.7698 15.59C15.5565 15.81 15.3898 16.08 15.2698 16.4C15.1498 16.7133 15.0898 17.07 15.0898 17.47C15.0898 17.8033 15.1398 18.13 15.2398 18.45C15.3465 18.7633 15.5032 19.0467 15.7098 19.3C15.9232 19.5467 16.1898 19.7467 16.5098 19.9C16.8365 20.0467 17.2198 20.12 17.6598 20.12C18.0865 20.12 18.4798 20.0467 18.8398 19.9C19.1998 19.7467 19.5132 19.53 19.7798 19.25L19.4598 18.93C19.3198 19.05 19.1865 19.16 19.0598 19.26C18.9398 19.36 18.8165 19.4433 18.6898 19.51C18.5632 19.5767 18.4298 19.63 18.2898 19.67C18.1565 19.7033 18.0065 19.72 17.8398 19.72C17.6532 19.72 17.4532 19.6933 17.2398 19.64C17.0332 19.58 16.8398 19.4767 16.6598 19.33C16.4798 19.1833 16.3298 18.98 16.2098 18.72C16.0898 18.46 16.0298 18.1267 16.0298 17.72H19.8298ZM16.0298 17.32C16.0298 17.0533 16.0565 16.7967 16.1098 16.55C16.1698 16.2967 16.2565 16.0733 16.3698 15.88C16.4898 15.6867 16.6398 15.5333 16.8198 15.42C16.9998 15.3 17.2132 15.24 17.4598 15.24C17.9332 15.24 18.2998 15.4267 18.5598 15.8C18.8265 16.1667 18.9598 16.6733 18.9598 17.32H16.0298ZM21.132 13H21.982V15.82H22.022C22.0887 15.6467 22.1754 15.5033 22.282 15.39C22.3954 15.27 22.522 15.1733 22.662 15.1C22.802 15.0267 22.9487 14.9733 23.102 14.94C23.262 14.9067 23.422 14.89 23.582 14.89C23.9154 14.89 24.222 14.9533 24.502 15.08C24.782 15.2 25.022 15.3733 25.222 15.6C25.4287 15.8267 25.5887 16.1 25.702 16.42C25.8154 16.74 25.872 17.0967 25.872 17.49C25.872 17.89 25.8154 18.2533 25.702 18.58C25.5887 18.9 25.4287 19.1767 25.222 19.41C25.022 19.6367 24.782 19.8133 24.502 19.94C24.222 20.06 23.9154 20.12 23.582 20.12C22.7887 20.12 22.2687 19.81 22.022 19.19H21.982V20H21.132V13ZM21.982 18C21.982 18.22 22.0154 18.43 22.082 18.63C22.1554 18.8233 22.2554 18.9933 22.382 19.14C22.5087 19.28 22.6554 19.3933 22.822 19.48C22.9954 19.56 23.1787 19.6 23.372 19.6C23.5787 19.6 23.7754 19.5633 23.962 19.49C24.1554 19.41 24.322 19.2867 24.462 19.12C24.602 18.9533 24.712 18.7367 24.792 18.47C24.8787 18.2033 24.922 17.8833 24.922 17.51C24.922 17.13 24.8787 16.8067 24.792 16.54C24.712 16.2733 24.5987 16.0567 24.452 15.89C24.312 15.7167 24.1487 15.5933 23.962 15.52C23.7754 15.44 23.5787 15.4 23.372 15.4C23.1854 15.4 23.0087 15.44 22.842 15.52C22.6754 15.5933 22.5287 15.7067 22.402 15.86C22.2754 16.0067 22.172 16.1867 22.092 16.4C22.0187 16.6133 21.982 16.8567 21.982 17.13V18ZM30.2333 18.23C30.2466 18.5167 30.3199 18.7767 30.4533 19.01C30.5933 19.2433 30.7799 19.4433 31.0133 19.61C31.2533 19.77 31.5333 19.8967 31.8533 19.99C32.1733 20.0767 32.5233 20.12 32.9033 20.12C33.2899 20.12 33.6366 20.0733 33.9433 19.98C34.2566 19.8867 34.5233 19.7533 34.7433 19.58C34.9633 19.4067 35.1333 19.1967 35.2533 18.95C35.3733 18.7033 35.4333 18.43 35.4333 18.13C35.4333 17.7167 35.3299 17.38 35.1233 17.12C34.9166 16.8533 34.6566 16.6333 34.3433 16.46C34.0366 16.28 33.6999 16.13 33.3333 16.01C32.9733 15.89 32.6366 15.7633 32.3233 15.63C32.0166 15.4967 31.7599 15.3433 31.5533 15.17C31.3466 14.9967 31.2433 14.7667 31.2433 14.48C31.2433 14.32 31.2766 14.17 31.3433 14.03C31.4166 13.89 31.5199 13.77 31.6533 13.67C31.7933 13.5633 31.9633 13.48 32.1633 13.42C32.3633 13.3533 32.5933 13.32 32.8533 13.32C33.2866 13.32 33.6533 13.4133 33.9533 13.6C34.2599 13.78 34.4399 14.0667 34.4933 14.46H35.1733C35.1333 14.2133 35.0433 13.9933 34.9033 13.8C34.7633 13.6 34.5866 13.4333 34.3733 13.3C34.1599 13.16 33.9166 13.0567 33.6433 12.99C33.3766 12.9167 33.0966 12.88 32.8033 12.88C32.4966 12.88 32.2033 12.92 31.9233 13C31.6499 13.08 31.4066 13.1967 31.1933 13.35C30.9866 13.5033 30.8199 13.6967 30.6933 13.93C30.5733 14.1633 30.5133 14.43 30.5133 14.73C30.5133 15.1233 30.6133 15.44 30.8133 15.68C31.0133 15.92 31.2633 16.12 31.5633 16.28C31.8699 16.44 32.1999 16.5767 32.5533 16.69C32.9066 16.8033 33.2333 16.9333 33.5333 17.08C33.8399 17.22 34.0933 17.3933 34.2933 17.6C34.4933 17.8067 34.5933 18.0833 34.5933 18.43C34.5933 18.8633 34.4333 19.18 34.1133 19.38C33.7999 19.58 33.3799 19.68 32.8533 19.68C32.4333 19.68 32.0966 19.6267 31.8433 19.52C31.5899 19.4067 31.3966 19.2733 31.2633 19.12C31.1299 18.9667 31.0399 18.81 30.9933 18.65C30.9466 18.4833 30.9199 18.3433 30.9133 18.23H30.2333ZM36.4133 15.4V15H37.2833V13.46H38.1333V15H39.3433V15.4H38.1333V18.72C38.1333 18.8 38.1366 18.8933 38.1433 19C38.1499 19.1 38.1699 19.1967 38.2033 19.29C38.2366 19.3767 38.2866 19.45 38.3533 19.51C38.4266 19.57 38.5266 19.6 38.6533 19.6C38.8133 19.6 38.9466 19.54 39.0533 19.42C39.1599 19.3 39.2466 19.17 39.3133 19.03L39.7833 19.51C39.4566 19.8367 39.0866 20 38.6733 20C38.4999 20 38.3299 19.97 38.1633 19.91C37.9966 19.85 37.8466 19.76 37.7133 19.64C37.5866 19.5133 37.4833 19.3533 37.4033 19.16C37.3233 18.9667 37.2833 18.74 37.2833 18.48V15.4H36.4133ZM40.6633 15V18.25C40.6633 18.37 40.6733 18.5367 40.6933 18.75C40.7199 18.9567 40.7899 19.1633 40.9033 19.37C41.0166 19.57 41.1933 19.7467 41.4333 19.9C41.6799 20.0467 42.0233 20.12 42.4633 20.12C42.6566 20.1267 42.8666 20.0867 43.0933 20C43.3266 19.92 43.5599 19.7633 43.7933 19.53L43.9533 19.37H43.9933V20H44.8433V15H43.9933V18.1C43.9933 18.36 43.9566 18.5833 43.8833 18.77C43.8099 18.9567 43.7133 19.1133 43.5933 19.24C43.4733 19.36 43.3333 19.45 43.1733 19.51C43.0133 19.57 42.8466 19.6 42.6733 19.6C42.3933 19.6 42.1733 19.5467 42.0133 19.44C41.8599 19.3267 41.7433 19.1967 41.6633 19.05C41.5899 18.9033 41.5466 18.76 41.5333 18.62C41.5199 18.4733 41.5133 18.3667 41.5133 18.3V15H40.6633ZM50.9138 13H50.0638V15.82H50.0238C49.9572 15.6467 49.8672 15.5033 49.7538 15.39C49.6472 15.27 49.5238 15.1733 49.3838 15.1C49.2438 15.0267 49.0938 14.9733 48.9338 14.94C48.7805 14.9067 48.6238 14.89 48.4638 14.89C48.1305 14.89 47.8238 14.9533 47.5438 15.08C47.2638 15.2 47.0205 15.3733 46.8138 15.6C46.6138 15.8267 46.4572 16.1 46.3438 16.42C46.2305 16.74 46.1738 17.0967 46.1738 17.49C46.1738 17.89 46.2305 18.2533 46.3438 18.58C46.4572 18.9 46.6138 19.1767 46.8138 19.41C47.0205 19.6367 47.2638 19.8133 47.5438 19.94C47.8238 20.06 48.1305 20.12 48.4638 20.12C49.2505 20.12 49.7705 19.81 50.0238 19.19H50.0638V20H50.9138V13ZM50.0638 18C50.0638 18.22 50.0272 18.43 49.9538 18.63C49.8805 18.8233 49.7805 18.9933 49.6538 19.14C49.5338 19.28 49.3872 19.3933 49.2138 19.48C49.0472 19.56 48.8672 19.6 48.6738 19.6C48.4605 19.6 48.2605 19.5633 48.0738 19.49C47.8872 19.41 47.7238 19.2867 47.5838 19.12C47.4438 18.9533 47.3305 18.7367 47.2438 18.47C47.1638 18.2033 47.1238 17.8833 47.1238 17.51C47.1238 17.13 47.1638 16.8067 47.2438 16.54C47.3305 16.2733 47.4438 16.0567 47.5838 15.89C47.7305 15.7167 47.8972 15.5933 48.0838 15.52C48.2705 15.44 48.4672 15.4 48.6738 15.4C48.8605 15.4 49.0372 15.44 49.2038 15.52C49.3705 15.5933 49.5172 15.7067 49.6438 15.86C49.7705 16.0067 49.8705 16.1867 49.9438 16.4C50.0238 16.6133 50.0638 16.8567 50.0638 17.13V18ZM52.829 15V20H53.679V15H52.829ZM52.709 13.42C52.709 13.5667 52.7623 13.6933 52.869 13.8C52.9757 13.9067 53.1023 13.96 53.249 13.96C53.3957 13.96 53.5223 13.9067 53.629 13.8C53.7357 13.6933 53.789 13.5667 53.789 13.42C53.789 13.2733 53.7357 13.1467 53.629 13.04C53.5223 12.9333 53.3957 12.88 53.249 12.88C53.1023 12.88 52.9757 12.9333 52.869 13.04C52.7623 13.1467 52.709 13.2733 52.709 13.42ZM60.4652 17.51C60.4652 17.8567 60.4052 18.19 60.2852 18.51C60.1652 18.8233 59.9918 19.1 59.7652 19.34C59.5452 19.58 59.2752 19.77 58.9552 19.91C58.6418 20.05 58.2885 20.12 57.8952 20.12C57.4952 20.12 57.1318 20.05 56.8052 19.91C56.4852 19.7633 56.2118 19.57 55.9852 19.33C55.7652 19.09 55.5918 18.8133 55.4652 18.5C55.3452 18.18 55.2852 17.85 55.2852 17.51C55.2852 17.1633 55.3452 16.8333 55.4652 16.52C55.5918 16.2 55.7652 15.92 55.9852 15.68C56.2118 15.44 56.4852 15.25 56.8052 15.11C57.1318 14.9633 57.4952 14.89 57.8952 14.89C58.2885 14.89 58.6418 14.9633 58.9552 15.11C59.2752 15.25 59.5452 15.44 59.7652 15.68C59.9918 15.92 60.1652 16.2 60.2852 16.52C60.4052 16.8333 60.4652 17.1633 60.4652 17.51ZM59.5152 17.51C59.5152 17.0433 59.4652 16.6667 59.3652 16.38C59.2652 16.0867 59.1352 15.86 58.9752 15.7C58.8152 15.54 58.6385 15.4333 58.4452 15.38C58.2518 15.32 58.0652 15.29 57.8852 15.29C57.7052 15.29 57.5185 15.32 57.3252 15.38C57.1318 15.4333 56.9518 15.54 56.7852 15.7C56.6252 15.86 56.4918 16.0867 56.3852 16.38C56.2852 16.6667 56.2352 17.0433 56.2352 17.51C56.2352 17.97 56.2852 18.3467 56.3852 18.64C56.4918 18.9267 56.6252 19.15 56.7852 19.31C56.9518 19.47 57.1318 19.58 57.3252 19.64C57.5185 19.6933 57.7052 19.72 57.8852 19.72C58.0652 19.72 58.2518 19.6933 58.4452 19.64C58.6385 19.58 58.8152 19.47 58.9752 19.31C59.1352 19.15 59.2652 18.9267 59.3652 18.64C59.4652 18.3467 59.5152 17.97 59.5152 17.51Z" fill="white"/>
</svg>
